# xmcd
#
# Track frame offsets: 
#        150
#        8324
#        13026
#        25261
#        38994
#        51657
#        59667
#        67728
#        79961
#        90020
#        106860
#        131432
#        143834
#        156294
#        170624
#        181843
#        192626
#        213630
#
# Disc length: 3040 seconds
#
# Revision: 1
# Processed by: cddbd v1.5.2PL0 Copyright (c) Steve Scherf et al.
# Submitted via: ExactAudioCopyFreeDBPlugin 1.0
#
DISCID=f00bde12
DTITLE=Sun Ra - Singles A`s and B´s
DYEAR=1966
DGENRE=Jazz
TTITLE0=Daddy' Gonna Tell You No Lie
TTITLE1=A Foggy Day In London Town
TTITLE2=Dreaming
TTITLE3=Daddy' Gonna Tell You No Lie
TTITLE4=Bye Bye
TTITLE5=Somebody's In Love
TTITLE6=Happy New Year To You
TTITLE7=It's Christmas Time
TTITLE8=Medicine For A Nightmare
TTITLE9=Urnack
TTITLE10=Great Balls Of Fire
TTITLE11=Hours After
TTITLE12=Muck Muck (Matt Matt)
TTITLE13=Hot Skillet Mama
TTITLE14=The Sun One
TTITLE15=Message To Earthman
TTITLE16=The Blue Set
TTITLE17=Big City Blues
EXTD=YEAR: 1966
EXTT0=
EXTT1=
EXTT2=
EXTT3=
EXTT4=
EXTT5=
EXTT6=
EXTT7=
EXTT8=
EXTT9=
EXTT10=
EXTT11=
EXTT12=
EXTT13=
EXTT14=
EXTT15=
EXTT16=
EXTT17=
PLAYORDER=
